<svg width="32" height="25" viewBox="0 0 32 25" fill="none" xmlns="http://www.w3.org/2000/svg">
<path d="M28 0H4C1.79375 0 0 1.40129 0 3.12482V17.1865C0 18.91 1.79375 20.3113 4 20.3113H10V24.4126C10 24.8911 10.7 25.1694 11.1938 24.8862L19 20.3113H28C30.2062 20.3113 32 18.91 32 17.1865V3.12482C32 1.40129 30.2062 0 28 0Z" fill="#EB5151"/>
<path d="M9.50426 6.27273H7.76989L5.60938 7.64062V9.27699L7.60795 8.02415H7.65909V15H9.50426V6.27273ZM15.0004 15.1918C17.195 15.1918 18.5202 13.5213 18.5245 10.6449C18.5288 7.78977 17.1864 6.15341 15.0004 6.15341C12.81 6.15341 11.4805 7.78551 11.4762 10.6449C11.4677 13.5128 12.8015 15.1875 15.0004 15.1918ZM15.0004 13.6619C13.9989 13.6619 13.3512 12.6562 13.3555 10.6449C13.3597 8.66335 14.0032 7.66619 15.0004 7.66619C15.9933 7.66619 16.641 8.66335 16.641 10.6449C16.6452 12.6562 15.9975 13.6619 15.0004 13.6619ZM22.4482 13.6705H23.9737V11.4162H26.228V9.89062H23.9737V7.63636H22.4482V9.89062H20.1939V11.4162H22.4482V13.6705Z" fill="#F9FAFC"/>
</svg>
